<svg id="visual" viewBox="0 0 900 600" width="900" height="600" xmlns="http://www.w3.org/2000/svg" xmlns:xlink="http://www.w3.org/1999/xlink" version="1.1"><g stroke-width="1" stroke-linejoin="bevel"><path d="M424 325L508 236L429 222Z" fill="#aa98d2" stroke="#aa98d2"></path><path d="M424 325L539 313L508 236Z" fill="#a28cce" stroke="#a28cce"></path><path d="M424 325L522 373L539 313Z" fill="#7d52b8" stroke="#7d52b8"></path><path d="M424 325L437 439L522 373Z" fill="#7646b3" stroke="#7646b3"></path><path d="M437 439L569 400L522 373Z" fill="#845ebd" stroke="#845ebd"></path><path d="M522 373L569 400L539 313Z" fill="#9a81ca" stroke="#9a81ca"></path><path d="M569 400L638 276L539 313Z" fill="#9375c6" stroke="#9375c6"></path><path d="M539 313L638 276L508 236Z" fill="#692aa9" stroke="#692aa9"></path><path d="M638 276L631 198L508 236Z" fill="#9375c6" stroke="#9375c6"></path><path d="M508 236L528 78L429 222Z" fill="#845ebd" stroke="#845ebd"></path><path d="M631 198L579 130L508 236Z" fill="#a28cce" stroke="#a28cce"></path><path d="M288 121L276 209L429 222Z" fill="#aa98d2" stroke="#aa98d2"></path><path d="M429 222L260 275L424 325Z" fill="#6219a3" stroke="#6219a3"></path><path d="M424 325L291 425L437 439Z" fill="#a28cce" stroke="#a28cce"></path><path d="M276 209L260 275L429 222Z" fill="#9a81ca" stroke="#9a81ca"></path><path d="M579 130L528 78L508 236Z" fill="#aa98d2" stroke="#aa98d2"></path><path d="M700 286L671 219L638 276Z" fill="#7d52b8" stroke="#7d52b8"></path><path d="M638 276L671 219L631 198Z" fill="#6f39ae" stroke="#6f39ae"></path><path d="M631 198L735 125L579 130Z" fill="#7646b3" stroke="#7646b3"></path><path d="M633 0L533 0L528 78Z" fill="#a28cce" stroke="#a28cce"></path><path d="M528 78L415 61L429 222Z" fill="#aa98d2" stroke="#aa98d2"></path><path d="M260 275L291 425L424 325Z" fill="#9375c6" stroke="#9375c6"></path><path d="M415 61L288 121L429 222Z" fill="#8b6ac2" stroke="#8b6ac2"></path><path d="M167 187L192 332L260 275Z" fill="#6f39ae" stroke="#6f39ae"></path><path d="M714 432L700 286L638 276Z" fill="#692aa9" stroke="#692aa9"></path><path d="M417 532L502 525L437 439Z" fill="#692aa9" stroke="#692aa9"></path><path d="M437 439L502 525L569 400Z" fill="#a28cce" stroke="#a28cce"></path><path d="M569 400L714 432L638 276Z" fill="#a28cce" stroke="#a28cce"></path><path d="M291 425L417 532L437 439Z" fill="#7646b3" stroke="#7646b3"></path><path d="M167 187L260 275L276 209Z" fill="#6219a3" stroke="#6219a3"></path><path d="M260 275L192 332L291 425Z" fill="#6f39ae" stroke="#6f39ae"></path><path d="M415 61L266 0L288 121Z" fill="#9375c6" stroke="#9375c6"></path><path d="M533 0L405 0L415 61Z" fill="#6f39ae" stroke="#6f39ae"></path><path d="M633 0L528 78L579 130Z" fill="#8b6ac2" stroke="#8b6ac2"></path><path d="M528 78L533 0L415 61Z" fill="#9a81ca" stroke="#9a81ca"></path><path d="M192 332L184 370L291 425Z" fill="#7646b3" stroke="#7646b3"></path><path d="M291 425L276 531L417 532Z" fill="#845ebd" stroke="#845ebd"></path><path d="M502 525L636 512L569 400Z" fill="#692aa9" stroke="#692aa9"></path><path d="M636 512L714 432L569 400Z" fill="#7d52b8" stroke="#7d52b8"></path><path d="M191 129L276 209L288 121Z" fill="#9a81ca" stroke="#9a81ca"></path><path d="M191 129L167 187L276 209Z" fill="#6219a3" stroke="#6219a3"></path><path d="M192 332L112 316L184 370Z" fill="#845ebd" stroke="#845ebd"></path><path d="M213 0L191 129L288 121Z" fill="#8b6ac2" stroke="#8b6ac2"></path><path d="M184 370L219 470L291 425Z" fill="#6219a3" stroke="#6219a3"></path><path d="M790 211L735 125L671 219Z" fill="#6219a3" stroke="#6219a3"></path><path d="M671 219L735 125L631 198Z" fill="#845ebd" stroke="#845ebd"></path><path d="M790 211L671 219L700 286Z" fill="#a28cce" stroke="#a28cce"></path><path d="M219 470L276 531L291 425Z" fill="#7646b3" stroke="#7646b3"></path><path d="M735 125L633 0L579 130Z" fill="#9a81ca" stroke="#9a81ca"></path><path d="M417 532L421 600L502 525Z" fill="#a28cce" stroke="#a28cce"></path><path d="M502 525L567 600L636 512Z" fill="#692aa9" stroke="#692aa9"></path><path d="M289 600L421 600L417 532Z" fill="#7646b3" stroke="#7646b3"></path><path d="M714 432L785 316L700 286Z" fill="#6219a3" stroke="#6219a3"></path><path d="M421 600L532 600L502 525Z" fill="#a28cce" stroke="#a28cce"></path><path d="M785 316L790 211L700 286Z" fill="#7646b3" stroke="#7646b3"></path><path d="M405 0L266 0L415 61Z" fill="#7d52b8" stroke="#7d52b8"></path><path d="M636 512L716 498L714 432Z" fill="#7646b3" stroke="#7646b3"></path><path d="M714 432L834 428L785 316Z" fill="#8b6ac2" stroke="#8b6ac2"></path><path d="M679 600L716 498L636 512Z" fill="#a28cce" stroke="#a28cce"></path><path d="M532 600L567 600L502 525Z" fill="#8b6ac2" stroke="#8b6ac2"></path><path d="M95 74L124 188L191 129Z" fill="#692aa9" stroke="#692aa9"></path><path d="M191 129L124 188L167 187Z" fill="#9375c6" stroke="#9375c6"></path><path d="M167 187L112 316L192 332Z" fill="#692aa9" stroke="#692aa9"></path><path d="M124 188L112 316L167 187Z" fill="#692aa9" stroke="#692aa9"></path><path d="M184 370L109 497L219 470Z" fill="#845ebd" stroke="#845ebd"></path><path d="M212 600L289 600L276 531Z" fill="#8b6ac2" stroke="#8b6ac2"></path><path d="M276 531L289 600L417 532Z" fill="#845ebd" stroke="#845ebd"></path><path d="M212 600L276 531L219 470Z" fill="#692aa9" stroke="#692aa9"></path><path d="M266 0L213 0L288 121Z" fill="#692aa9" stroke="#692aa9"></path><path d="M790 65L708 0L735 125Z" fill="#a28cce" stroke="#a28cce"></path><path d="M735 125L708 0L633 0Z" fill="#8b6ac2" stroke="#8b6ac2"></path><path d="M837 600L799 464L716 498Z" fill="#a28cce" stroke="#a28cce"></path><path d="M716 498L799 464L714 432Z" fill="#8b6ac2" stroke="#8b6ac2"></path><path d="M785 316L900 296L790 211Z" fill="#aa98d2" stroke="#aa98d2"></path><path d="M0 308L83 377L112 316Z" fill="#692aa9" stroke="#692aa9"></path><path d="M112 316L83 377L184 370Z" fill="#6219a3" stroke="#6219a3"></path><path d="M790 211L790 65L735 125Z" fill="#6f39ae" stroke="#6f39ae"></path><path d="M900 128L790 65L790 211Z" fill="#7646b3" stroke="#7646b3"></path><path d="M567 600L679 600L636 512Z" fill="#7d52b8" stroke="#7d52b8"></path><path d="M900 373L834 428L900 539Z" fill="#692aa9" stroke="#692aa9"></path><path d="M799 464L834 428L714 432Z" fill="#aa98d2" stroke="#aa98d2"></path><path d="M109 497L212 600L219 470Z" fill="#9a81ca" stroke="#9a81ca"></path><path d="M83 377L109 497L184 370Z" fill="#9375c6" stroke="#9375c6"></path><path d="M133 0L95 74L191 129Z" fill="#6219a3" stroke="#6219a3"></path><path d="M124 188L0 308L112 316Z" fill="#692aa9" stroke="#692aa9"></path><path d="M213 0L133 0L191 129Z" fill="#9375c6" stroke="#9375c6"></path><path d="M900 373L900 296L785 316Z" fill="#a28cce" stroke="#a28cce"></path><path d="M900 296L900 202L790 211Z" fill="#a28cce" stroke="#a28cce"></path><path d="M834 428L900 373L785 316Z" fill="#8b6ac2" stroke="#8b6ac2"></path><path d="M900 539L834 428L799 464Z" fill="#7646b3" stroke="#7646b3"></path><path d="M0 164L0 308L124 188Z" fill="#7646b3" stroke="#7646b3"></path><path d="M83 377L0 494L109 497Z" fill="#692aa9" stroke="#692aa9"></path><path d="M900 202L900 128L790 211Z" fill="#a28cce" stroke="#a28cce"></path><path d="M790 65L839 0L708 0Z" fill="#aa98d2" stroke="#aa98d2"></path><path d="M900 128L839 0L790 65Z" fill="#9375c6" stroke="#9375c6"></path><path d="M109 497L121 600L212 600Z" fill="#9a81ca" stroke="#9a81ca"></path><path d="M0 600L121 600L109 497Z" fill="#7646b3" stroke="#7646b3"></path><path d="M0 308L0 384L83 377Z" fill="#9a81ca" stroke="#9a81ca"></path><path d="M0 80L0 164L95 74Z" fill="#7d52b8" stroke="#7d52b8"></path><path d="M95 74L0 164L124 188Z" fill="#692aa9" stroke="#692aa9"></path><path d="M679 600L837 600L716 498Z" fill="#692aa9" stroke="#692aa9"></path><path d="M0 0L0 80L95 74Z" fill="#6219a3" stroke="#6219a3"></path><path d="M0 384L0 494L83 377Z" fill="#6219a3" stroke="#6219a3"></path><path d="M837 600L900 539L799 464Z" fill="#7646b3" stroke="#7646b3"></path><path d="M900 128L900 0L839 0Z" fill="#6219a3" stroke="#6219a3"></path><path d="M133 0L0 0L95 74Z" fill="#7d52b8" stroke="#7d52b8"></path><path d="M837 600L900 600L900 539Z" fill="#a28cce" stroke="#a28cce"></path><path d="M0 494L0 600L109 497Z" fill="#6219a3" stroke="#6219a3"></path></g></svg>